# xmcd
#
# Track frame offsets:
#	183
#	13398
#	24958
#	37723
#	49515
#	69818
#	85533
#	99028
#	116558
#	130275
#	143633
#	156315
#
# Disc length: 2284 seconds
#
# Revision: 2
# Processed by: cddbd v1.4PL0 Copyright (c) Steve Scherf et al.
# Submitted via: MusicWizard 6.0.2
#
DISCID=8408ea0c
DTITLE=Percy Sledge - Greatest Hits
DYEAR=1900
DGENRE=Oldie
TTITLE0=When A Man Loves A Woman
TTITLE1=(Sitin´ On) The Dock Of The Bay
TTITLE2=Cover Me
TTITLE3=Tell It Like It Is
TTITLE4=You Send Me
TTITLE5=Bring It On Home To Me
TTITLE6=My Special Prayer
TTITLE7=Try A Little Tenderness
TTITLE8=Take Time To Know Her
TTITLE9=I´ve Been Loving You Too Long
TTITLE10=It Tears Me Up
TTITLE11=Warm And Tender Love
EXTD=
EXTT0=
EXTT1=
EXTT2=
EXTT3=
EXTT4=
EXTT5=
EXTT6=
EXTT7=
EXTT8=
EXTT9=
EXTT10=
EXTT11=
PLAYORDER=
